<svg width="64" height="64" viewBox="0 0 64 64" fill="none" xmlns="http://www.w3.org/2000/svg">
<path fill-rule="evenodd" clip-rule="evenodd" d="M26.4296 1.13325L26.0625 1.51637L26.0869 16.8557C26.1003 25.2924 26.0709 32.2604 26.0216 32.3401C25.9656 32.4308 24.2116 30.7179 21.3458 27.7738C18.8233 25.1826 15.8848 22.1906 14.8158 21.125L12.872 19.1875L12.3035 19.2095C11.7368 19.2314 11.7269 19.2397 9.10662 21.897C7.661 23.363 6.39463 24.7532 6.2925 24.9865C6.18913 25.2227 6.14112 25.5474 6.18437 25.7196C6.22712 25.8896 7.28613 27.1051 8.53788 28.4206C13.9827 34.1431 15.2969 35.6218 18.3844 39.5C22.46 44.6194 26.3075 50.1411 29.2283 55.0625C30.9424 57.951 30.9466 57.9569 31.357 58.1C31.6993 58.2192 31.7919 58.1986 32.1087 57.932C32.3076 57.7646 32.766 57.1069 33.1274 56.4701C35.6348 52.0531 39.9769 45.6205 43.4857 41.125C46.7904 36.8913 49.3876 33.903 53.8349 29.218C56.3039 26.617 56.9041 25.9171 56.9597 25.5749C57.0237 25.1805 56.9506 25.0661 55.9025 23.9194C55.2831 23.2419 53.985 21.9065 53.0176 20.952L51.2586 19.2165L50.6697 19.2829C50.1099 19.346 50.0061 19.4254 48.5664 20.8934C47.7334 21.7426 44.8182 24.7114 42.0884 27.4904L37.125 32.5434V17.112C37.125 2.778 37.1099 1.65862 36.912 1.37162C36.4797 0.7445 36.599 0.75825 31.5546 0.754L26.7967 0.75L26.4296 1.13325Z" fill="black"/>
</svg>
