<svg width="15" height="16" viewBox="0 0 15 16" fill="none" xmlns="http://www.w3.org/2000/svg">
<path fill-rule="evenodd" clip-rule="evenodd" d="M0.50894 0.236328C0.444688 0.284648 0.358842 0.373828 0.318163 0.434453C0.24564 0.542578 0.244014 0.585234 0.232776 2.64148C0.220335 4.91949 0.221007 4.93039 0.423624 5.79297C0.735307 7.11992 1.24699 8.5073 1.7444 9.3743C1.82226 9.51004 1.91698 9.68262 1.95483 9.75781C2.04053 9.92793 2.5067 10.6316 2.78707 11.014C3.11642 11.4633 3.87904 12.3082 4.33877 12.7333C5.51326 13.8192 7.05896 14.7065 8.98041 15.3977C9.90744 15.7312 9.71274 15.7118 11.9955 15.6995C13.8741 15.6894 14.0389 15.6831 14.1757 15.6171C14.2821 15.5657 14.3441 15.5012 14.3966 15.3877C14.4679 15.233 14.4695 15.1776 14.4695 12.7848C14.4695 10.0884 14.4794 10.2111 14.2453 10.0138L14.1271 9.91406H11.8067H9.48623V11.0469C9.48623 11.6699 9.47425 12.1797 9.45958 12.1797C9.44495 12.1797 9.28191 12.1205 9.09732 12.0482C7.20556 11.3071 5.79278 10.1117 4.71106 8.33672C4.21839 7.52828 3.74442 6.36227 3.5699 5.5293L3.52286 5.30469L4.41051 5.3002C4.89873 5.2977 5.32203 5.29332 5.35118 5.29043C5.39784 5.28578 5.40264 5.00336 5.39116 2.94141C5.37836 0.650391 5.37642 0.594336 5.30414 0.449258C5.26346 0.367617 5.17999 0.266523 5.11863 0.224648C5.01116 0.151211 4.9269 0.148438 2.81644 0.148438H0.625782L0.50894 0.236328Z" fill="black"/>
</svg>
