<svg width="40" height="50" viewBox="0 0 40 50" fill="none" xmlns="http://www.w3.org/2000/svg">
<path fill-rule="evenodd" clip-rule="evenodd" d="M22.007 1.00625C17.88 1.40038 14.2375 2.68525 10.8835 4.93013C8.53537 6.50175 7.05425 7.86438 5.25 10.113C2.71862 13.2679 0.820999 17.8078 0.310624 21.9306C-1.01513 32.639 4.22387 42.568 13.6875 47.2829C17.4035 49.1341 22.3532 49.9728 26.7236 49.4913C30.3461 49.0923 33.6365 47.9795 36.7179 46.1113C37.8955 45.3974 39.9047 43.8516 39.786 43.751C39.7319 43.7051 39.2937 43.5948 38.8125 43.5055C37.527 43.2675 35.2077 42.482 33.9965 41.8746C28.9474 39.3426 25.3996 34.8204 24.2394 29.4375C21.9827 18.9684 28.2154 9.14013 38.5371 6.89138C39.0731 6.77463 39.5201 6.62475 39.5306 6.55825C39.5575 6.38688 38.0339 5.27 36.5563 4.37788C32.3074 1.81263 26.8369 0.544879 22.007 1.00625Z" fill="black"/>
</svg>
